<?xml version="1.0" encoding="UTF-8"?>
<svg version="1.1" xmlns="http://www.w3.org/2000/svg" width="150" height="40">
<path d="M0 0 C49.5 0 99 0 150 0 C150 13.2 150 26.4 150 40 C100.5 40 51 40 0 40 C0 26.8 0 13.6 0 0 Z " fill="#114160" transform="translate(0,0)"/>
<path d="M0 0 C7.92 0 15.84 0 24 0 C22.35 1.65 20.7 3.3 19 5 C17.94712186 6.63377642 16.9272999 8.29181597 16 10 C16.66 10.33 17.32 10.66 18 11 C17.01 11.33 16.02 11.66 15 12 C15.66 14.31 16.32 16.62 17 19 C16.34 19 15.68 19 15 19 C15.86288814 26.55027119 16.67938958 32.66310471 21 39 C21 39.33 21 39.66 21 40 C14.07 40 7.14 40 0 40 C0 26.8 0 13.6 0 0 Z " fill="#10405F" transform="translate(0,0)"/>
<path d="M0 0 C1.65 0 3.3 0 5 0 C5.33 1.65 5.66 3.3 6 5 C6.66 5 7.32 5 8 5 C8.33 3.68 8.66 2.36 9 1 C10.98 0.67 12.96 0.34 15 0 C15.66 1.65 16.32 3.3 17 5 C17.391875 4.175 17.78375 3.35 18.1875 2.5 C18.785625 1.675 19.38375 0.85 20 0 C22.6875 -0.3125 22.6875 -0.3125 25 0 C23.79618552 2.49361571 22.54571278 4.68143083 21 7 C21.30023402 10.9030423 22.61040003 12.98702613 25 16 C25 16.66 25 17.32 25 18 C22.6875 18.25 22.6875 18.25 20 18 C18.1875 16 18.1875 16 17 14 C16.67 15.32 16.34 16.64 16 18 C14.35 18 12.7 18 11 18 C10.9729957 16.54176788 10.95360213 15.08339325 10.9375 13.625 C10.92589844 12.81289063 10.91429687 12.00078125 10.90234375 11.1640625 C11 9 11 9 12 7 C11.34 7 10.68 7 10 7 C9.67 10.63 9.34 14.26 9 18 C7.68 18 6.36 18 5 18 C4.67 14.7 4.34 11.4 4 8 C3.34 8 2.68 8 2 8 C2.29485713 16.05966872 2.29485713 16.05966872 6 23 C8.6740203 25.10101595 10.04284685 24.99846976 13.5 24.875 C17.30550221 23.92362445 18.48397078 22.8887743 21 20 C21.66 20 22.32 20 23 20 C21.70278804 22.89378052 20.47956713 24.9972727 18 27 C13.98854421 27.82852787 9.80256192 27.89210295 6.08203125 26.05078125 C2.82727014 23.5032275 0.88907638 21.00084369 0 17 C-0.14392017 13.65899612 -0.11678657 10.34139351 0 7 C0.66 7 1.32 7 2 7 C1.67 6.401875 1.34 5.80375 1 5.1875 C0 3 0 3 0 0 Z " fill="#D5B654" transform="translate(15,12)"/>
<path d="M0 0 C0.66 0 1.32 0 2 0 C2.33 0.66 2.66 1.32 3 2 C3.33 1.34 3.66 0.68 4 0 C4.66 0 5.32 0 6 0 C6.66 1.32 7.32 2.64 8 4 C8.66 2.68 9.32 1.36 10 0 C10.66 0 11.32 0 12 0 C12.66 1.32 13.32 2.64 14 4 C14.33 2.68 14.66 1.36 15 0 C17.475 0.495 17.475 0.495 20 1 C19.690625 2.36125 19.690625 2.36125 19.375 3.75 C18.96434042 7.30904972 19.39892524 7.98621221 21 11 C21.125 14.25 21.125 14.25 21 17 C20.67 17 20.34 17 20 17 C20 15.35 20 13.7 20 12 C18.70366379 13.06645115 18.70366379 13.06645115 18.9375 15.5625 C18.958125 16.366875 18.97875 17.17125 19 18 C17.68 18 16.36 18 15 18 C15 16.02 15 14.04 15 12 C14.67 12.99 14.34 13.98 14 15 C13.01 15 12.02 15 11 15 C10.01 16.485 10.01 16.485 9 18 C7.68 18 6.36 18 5 18 C5 15.69 5 13.38 5 11 C3.68 11 2.36 11 1 11 C0.67 13.31 0.34 15.62 0 18 C-0.66 18 -1.32 18 -2 18 C-2 16.02 -2 14.04 -2 12 C-1.34 12 -0.68 12 0 12 C0.33 11.01 0.66 10.02 1 9 C5.875 9.875 5.875 9.875 7 11 C7 10.34 7 9.68 7 9 C4.34771188 7.92474806 1.71631546 6.90543849 -1 6 C-0.67 4.02 -0.34 2.04 0 0 Z " fill="#2F5B75" transform="translate(82,13)"/>
<path d="M0 0 C2.354248 0.588562 4.68970915 1.25740651 7 2 C7.99 2 8.98 2 10 2 C10 3.98 10 5.96 10 8 C8.33333333 8 6.66666667 8 5 8 C4.67 7.01 4.34 6.02 4 5 C3.01 6.485 3.01 6.485 2 8 C1.67 7.67 1.34 7.34 1 7 C0.67 7.66 0.34 8.32 0 9 C2.31 9.33 4.62 9.66 7 10 C6.67 13.3 6.34 16.6 6 20 C-3.10714286 21.20535714 -3.10714286 21.20535714 -7 20 C-7 18.02 -7 16.04 -7 14 C-5.35 13.67 -3.7 13.34 -2 13 C-2.99 13 -3.98 13 -5 13 C-5 12.01 -5 11.02 -5 10 C-5.495 9.54625 -5.99 9.0925 -6.5 8.625 C-8 7 -8 7 -8.1875 4.3125 C-8.125625 3.549375 -8.06375 2.78625 -8 2 C-6.8553125 2.061875 -6.8553125 2.061875 -5.6875 2.125 C-2.77281584 2.22080824 -2.77281584 2.22080824 0 0 Z " fill="#25526C" transform="translate(69,11)"/>
<path d="M0 0 C2 2 2 2 2 5 C2.66 5 3.32 5 4 5 C4 4.34 4 3.68 4 3 C4.66 3 5.32 3 6 3 C6.33 4.32 6.66 5.64 7 7 C7.66 5.68 8.32 4.36 9 3 C9.66 3 10.32 3 11 3 C11.66 4.98 12.32 6.96 13 9 C11.35 9 9.7 9 8 9 C8 12.96 8 16.92 8 21 C7.34 21 6.68 21 6 21 C5.67 20.34 5.34 19.68 5 19 C4.34 19.66 3.68 20.32 3 21 C3 19.02 3 17.04 3 15 C2.34 15 1.68 15 1 15 C1 15.66 1 16.32 1 17 C0.34 17 -0.32 17 -1 17 C-1.33 18.32 -1.66 19.64 -2 21 C-3.65 21 -5.3 21 -7 21 C-6.67 19.35 -6.34 17.7 -6 16 C-5.01 16 -4.02 16 -3 16 C-3.33 14.68 -3.66 13.36 -4 12 C-2.02 11.67 -0.04 11.34 2 11 C2 10.34 2 9.68 2 9 C1.34 9 0.68 9 0 9 C-0.33 7.35 -0.66 5.7 -1 4 C-1.33 5.65 -1.66 7.3 -2 9 C-2.66 9 -3.32 9 -4 9 C-4 6.69 -4 4.38 -4 2 C-2.68 2 -1.36 2 0 2 C0 1.34 0 0.68 0 0 Z " fill="#305B74" transform="translate(123,10)"/>
<path d="M0 0 C1.31677734 0.00580078 1.31677734 0.00580078 2.66015625 0.01171875 C4.9375 0.3125 4.9375 0.3125 6.9375 2.3125 C6.2775 2.3125 5.6175 2.3125 4.9375 2.3125 C4.9375 2.9725 4.9375 3.6325 4.9375 4.3125 C5.576875 4.539375 6.21625 4.76625 6.875 5 C8.9375 6.3125 8.9375 6.3125 9.6875 8.9375 C9.81125 10.113125 9.81125 10.113125 9.9375 11.3125 C6.4725 8.3425 6.4725 8.3425 2.9375 5.3125 C2.9375 5.9725 2.9375 6.6325 2.9375 7.3125 C2.2775 7.3125 1.6175 7.3125 0.9375 7.3125 C0.9375 8.3025 0.9375 9.2925 0.9375 10.3125 C-0.3825 10.3125 -1.7025 10.3125 -3.0625 10.3125 C-2.0725 10.9725 -1.0825 11.6325 -0.0625 12.3125 C-1.7125 12.6425 -3.3625 12.9725 -5.0625 13.3125 C-5.3925 14.6325 -5.7225 15.9525 -6.0625 17.3125 C-6.7225 17.3125 -7.3825 17.3125 -8.0625 17.3125 C-8.3925 15.6625 -8.7225 14.0125 -9.0625 12.3125 C-10.0525 11.9825 -11.0425 11.6525 -12.0625 11.3125 C-12.3925 10.3225 -12.7225 9.3325 -13.0625 8.3125 C-11.39583333 6.64583333 -9.72916667 4.97916667 -8.0625 3.3125 C-7.39347656 2.49652344 -7.39347656 2.49652344 -6.7109375 1.6640625 C-4.43923583 -0.19851754 -2.9006467 -0.05553521 0 0 Z " fill="#13405C" transform="translate(29.0625,-0.3125)"/>
<path d="M0 0 C0.66 0 1.32 0 2 0 C1.67 3.63 1.34 7.26 1 11 C2.65 11 4.3 11 6 11 C6 9.02 6 7.04 6 5 C7.37562854 6.28965176 8.70766393 7.62689293 10 9 C10 9.66 10 10.32 10 11 C11.65 11 13.3 11 15 11 C15 11.33 15 11.66 15 12 C13.35 12 11.7 12 10 12 C10.33 12.99 10.66 13.98 11 15 C7.65570321 17.69175108 5.79227483 18.98610044 1.4375 19.0625 C-2.60417687 17.81325442 -4.32357956 16.22744818 -7 13 C-8.26237731 10.47524538 -8.09856404 8.68799534 -8.0625 5.875 C-8.05347656 4.96492188 -8.04445313 4.05484375 -8.03515625 3.1171875 C-8.02355469 2.41851563 -8.01195313 1.71984375 -8 1 C-7.34 1 -6.68 1 -6 1 C-4.39274365 4.21451269 -4.94251815 7.43612536 -5 11 C-3.68 11 -2.36 11 -1 11 C-1.020625 9.9275 -1.04125 8.855 -1.0625 7.75 C-1.0142016 4.85209576 -0.86844115 2.71387859 0 0 Z " fill="#1D465A" transform="translate(25,19)"/>
<path d="M0 0 C0.33 0.66 0.66 1.32 1 2 C1.66 2 2.32 2 3 2 C3 3.98 3 5.96 3 8 C3.66 8 4.32 8 5 8 C5 6.35 5 4.7 5 3 C5.66 2.67 6.32 2.34 7 2 C7 3.98 7 5.96 7 8 C7.66 8 8.32 8 9 8 C9 8.66 9 9.32 9 10 C7.35 10.66 5.7 11.32 4 12 C4 12.99 4 13.98 4 15 C2.33388095 15.042721 0.66617115 15.04063832 -1 15 C-1.33 14.67 -1.66 14.34 -2 14 C-4.0245738 15.93254772 -5.42105792 17.63158688 -7 20 C-7.66 20 -8.32 20 -9 20 C-9.1875 17.125 -9.1875 17.125 -9 14 C-8.01 13.34 -7.02 12.68 -6 12 C-6.33 11.01 -6.66 10.02 -7 9 C-7.33 9 -7.66 9 -8 9 C-8 6.69 -8 4.38 -8 2 C-7.01 2 -6.02 2 -5 2 C-5 2.99 -5 3.98 -5 5 C-4.34 4.01 -3.68 3.02 -3 2 C-2.34 2.33 -1.68 2.66 -1 3 C-0.67 2.01 -0.34 1.02 0 0 Z " fill="#124362" transform="translate(116,11)"/>
<path d="M0 0 C0.33 0 0.66 0 1 0 C1.33 1.98 1.66 3.96 2 6 C3.1446875 6.185625 3.1446875 6.185625 4.3125 6.375 C7 7 7 7 10 9 C9.67 10.32 9.34 11.64 9 13 C8.67 12.01 8.34 11.02 8 10 C6.35 10 4.7 10 3 10 C2.67 10.66 2.34 11.32 2 12 C-0.875 12.1875 -0.875 12.1875 -4 12 C-4.66 11.01 -5.32 10.02 -6 9 C-8.55183404 7.79549696 -8.55183404 7.79549696 -11 7 C-10.67 6.01 -10.34 5.02 -10 4 C-9.67 4.33 -9.34 4.66 -9 5 C-8.01 3.68 -7.02 2.36 -6 1 C-6 2.65 -6 4.3 -6 6 C-5.34 6 -4.68 6 -4 6 C-3.67 5.34 -3.34 4.68 -3 4 C-2.01 4.66 -1.02 5.32 0 6 C0 4.02 0 2.04 0 0 Z " fill="#0D3E5A" transform="translate(80,13)"/>
<path d="M0 0 C0.99 0 1.98 0 3 0 C3 0.66 3 1.32 3 2 C3.66 2 4.32 2 5 2 C5 1.34 5 0.68 5 0 C5.66 0 6.32 0 7 0 C7 1.98 7 3.96 7 6 C7.66 6.33 8.32 6.66 9 7 C8.34 7 7.68 7 7 7 C6.34 10.63 5.68 14.26 5 18 C3.68 18 2.36 18 1 18 C1 16.02 1 14.04 1 12 C1.66 11.67 2.32 11.34 3 11 C2.01 10.34 1.02 9.68 0 9 C-1.35 2.7 -1.35 2.7 0 0 Z " fill="#466E85" transform="translate(52,13)"/>
<path d="M0 0 C0.33 0.66 0.66 1.32 1 2 C1.66 2 2.32 2 3 2 C3 1.34 3 0.68 3 0 C3.66 0 4.32 0 5 0 C5.33 1.32 5.66 2.64 6 4 C6.66 2.68 7.32 1.36 8 0 C8.66 0 9.32 0 10 0 C10.66 1.98 11.32 3.96 12 6 C10.35 6 8.7 6 7 6 C7 9.96 7 13.92 7 18 C6.34 18 5.68 18 5 18 C4.67 17.34 4.34 16.68 4 16 C3.34 16.66 2.68 17.32 2 18 C2 16.35 2 14.7 2 13 C2.66 13 3.32 13 4 13 C3.67 9.7 3.34 6.4 3 3 C2.34 3 1.68 3 1 3 C0.67 3.66 0.34 4.32 0 5 C0 3.35 0 1.7 0 0 Z " fill="#698C9F" transform="translate(124,13)"/>
<path d="M0 0 C0.66 0 1.32 0 2 0 C1.88570603 1.77155654 1.75816963 3.54226229 1.625 5.3125 C1.55539063 6.29863281 1.48578125 7.28476562 1.4140625 8.30078125 C1 11 1 11 -1 14 C-0.34 14 0.32 14 1 14 C0.67 14.66 0.34 15.32 0 16 C-2.3125 16.3125 -2.3125 16.3125 -5 16 C-8.06722832 12.82700519 -8.17552563 9.90846649 -8.1875 5.6875 C-8.13958275 4.12448483 -8.08187055 2.56160485 -8 1 C-7.34 1 -6.68 1 -6 1 C-4.39274365 4.21451269 -4.94251815 7.43612536 -5 11 C-3.68 11 -2.36 11 -1 11 C-1.020625 9.9275 -1.04125 8.855 -1.0625 7.75 C-1.0142016 4.85209576 -0.86844115 2.71387859 0 0 Z " fill="#2D4F5B" transform="translate(25,19)"/>
<path d="M0 0 C2.354248 0.588562 4.68970915 1.25740651 7 2 C7.99 2 8.98 2 10 2 C10 3.98 10 5.96 10 8 C8.33333333 8 6.66666667 8 5 8 C4.67 7.01 4.34 6.02 4 5 C3.01 6.485 3.01 6.485 2 8 C-1 8 -1 8 -2.6875 6.5 C-3.120625 6.005 -3.55375 5.51 -4 5 C-4.66 5.66 -5.32 6.32 -6 7 C-6.66 5.35 -7.32 3.7 -8 2 C-6.8553125 2.061875 -6.8553125 2.061875 -5.6875 2.125 C-2.77281584 2.22080824 -2.77281584 2.22080824 0 0 Z " fill="#587E91" transform="translate(69,11)"/>
<path d="M0 0 C0.66 0.66 1.32 1.32 2 2 C1.34 2 0.68 2 0 2 C0 2.66 0 3.32 0 4 C0.639375 4.226875 1.27875 4.45375 1.9375 4.6875 C4 6 4 6 4.75 8.625 C4.87375 9.800625 4.87375 9.800625 5 11 C2.66666667 8.66666667 0.33333333 6.33333333 -2 4 C-5.07561225 3.37158414 -7.92670828 3.36194636 -11 4 C-13.17879941 5.79307894 -14.37825488 7.64109801 -16 10 C-16.66 10 -17.32 10 -18 10 C-16.88547893 6.09917627 -15.13480133 3.47429906 -11.921875 0.9453125 C-8.20051497 -0.88511256 -4.02329228 -0.68743303 0 0 Z " fill="#1F445E" transform="translate(34,0)"/>
<path d="M0 0 C1.24549946 2.49099891 0.99960671 4.04207737 0.875 6.8125 C0.83819792 11.06314064 1.09967391 13.68534161 4 17 C6.6740203 19.10101595 8.04284685 18.99846976 11.5 18.875 C15.30550221 17.92362445 16.48397078 16.8887743 19 14 C19.66 14 20.32 14 21 14 C19.70278804 16.89378052 18.47956713 18.9972727 16 21 C11.98854421 21.82852787 7.80256192 21.89210295 4.08203125 20.05078125 C0.82727014 17.5032275 -1.11092362 15.00084369 -2 11 C-2.14392017 7.65899612 -2.11678657 4.34139351 -2 1 C-1.34 0.67 -0.68 0.34 0 0 Z " fill="#97965B" transform="translate(17,18)"/>
<path d="M0 0 C0.33 1.98 0.66 3.96 1 6 C-1.33333333 6 -3.66666667 6 -6 6 C-6.33 7.32 -6.66 8.64 -7 10 C-8.33264887 2.60985626 -8.33264887 2.60985626 -6.875 -0.0625 C-4.28200705 -1.35899648 -2.71528654 -0.80724735 0 0 Z " fill="#999357" transform="translate(31,13)"/>
<path d="M0 0 C1.65 0.33 3.3 0.66 5 1 C5 1.99 5 2.98 5 4 C5.99 4 6.98 4 8 4 C8.33 5.65 8.66 7.3 9 9 C7.35 9 5.7 9 4 9 C4 6.69 4 4.38 4 2 C2.68 2 1.36 2 0 2 C-0.33 4.31 -0.66 6.62 -1 9 C-1.66 9 -2.32 9 -3 9 C-3 7.02 -3 5.04 -3 3 C-2.34 3 -1.68 3 -1 3 C-0.67 2.01 -0.34 1.02 0 0 Z " fill="#5F8196" transform="translate(83,22)"/>
<path d="M0 0 C1.65 0 3.3 0 5 0 C4.67 3.3 4.34 6.6 4 10 C2.68 10 1.36 10 0 10 C0 6.66666667 0 3.33333333 0 0 Z " fill="#476F86" transform="translate(71,21)"/>
<path d="M0 0 C0.99 0 1.98 0 3 0 C3 0.99 3 1.98 3 3 C3.66 2.01 4.32 1.02 5 0 C5.66 2.31 6.32 4.62 7 7 C6.01 7.33 5.02 7.66 4 8 C4 7.34 4 6.68 4 6 C2.68 6.33 1.36 6.66 0 7 C0 4.69 0 2.38 0 0 Z " fill="#5A7D8F" transform="translate(108,13)"/>
<path d="M0 0 C0.5534764 2.07553648 1 3.84365964 1 6 C1.66 6 2.32 6 3 6 C3 6.66 3 7.32 3 8 C1.35 8.66 -0.3 9.32 -2 10 C-4.09749995 7.64031256 -4.96905704 6.45383006 -5.1875 3.25 C-5.125625 2.5075 -5.06375 1.765 -5 1 C-4.34 1 -3.68 1 -3 1 C-3 2.65 -3 4.3 -3 6 C-2.34 6 -1.68 6 -1 6 C-1.020625 5.195625 -1.04125 4.39125 -1.0625 3.5625 C-1 1 -1 1 0 0 Z " fill="#0C3D56" transform="translate(122,13)"/>
<path d="M0 0 C0.99 0.33 1.98 0.66 3 1 C3 3.64 3 6.28 3 9 C2.01 9.33 1.02 9.66 0 10 C-2 7 -2 7 -1.6875 4.4375 C-1 2 -1 2 0 0 Z " fill="#496159" transform="translate(37,16)"/>
<path d="M0 0 C2 2 2 2 2.1953125 4.1640625 C2.17210937 4.97617187 2.14890625 5.78828125 2.125 6.625 C2.10695312 7.44226563 2.08890625 8.25953125 2.0703125 9.1015625 C2.03550781 10.04128906 2.03550781 10.04128906 2 11 C1.34 11 0.68 11 0 11 C-0.33 10.34 -0.66 9.68 -1 9 C-1.66 9.66 -2.32 10.32 -3 11 C-3 9.35 -3 7.7 -3 6 C-2.34 6 -1.68 6 -1 6 C-1.0309375 4.7934375 -1.0309375 4.7934375 -1.0625 3.5625 C-1 1 -1 1 0 0 Z " fill="#5E8398" transform="translate(129,20)"/>
<path d="M0 0 C0.66 0 1.32 0 2 0 C2.33 0.66 2.66 1.32 3 2 C3.33 1.34 3.66 0.68 4 0 C4.66 0 5.32 0 6 0 C6 1.98 6 3.96 6 6 C4.02 6.33 2.04 6.66 0 7 C-0.93423645 3.98968256 -1.04449911 3.13349732 0 0 Z " fill="#7B9BAA" transform="translate(82,13)"/>
<path d="M0 0 C0.66 0 1.32 0 2 0 C2 1.65 2 3.3 2 5 C3.65 5.33 5.3 5.66 7 6 C6.01 6.33 5.02 6.66 4 7 C4 7.66 4 8.32 4 9 C4.99 9 5.98 9 7 9 C6.67 9.66 6.34 10.32 6 11 C4.68 10.67 3.36 10.34 2 10 C1.67 11.32 1.34 12.64 1 14 C1.020625 12.80375 1.04125 11.6075 1.0625 10.375 C1.06882571 6.81995131 0.69888875 3.49444376 0 0 Z " fill="#0C3B57" transform="translate(60,15)"/>
<path d="M0 0 C0 0.33 0 0.66 0 1 C-0.88751953 1.00386719 -0.88751953 1.00386719 -1.79296875 1.0078125 C-6.5838283 1.14954606 -6.5838283 1.14954606 -10.640625 3.40234375 C-11.80908887 4.89811828 -12.90931433 6.4465992 -14 8 C-14.66 8 -15.32 8 -16 8 C-15.04544602 4.18178407 -14.03022896 3.02252354 -10.8125 0.625 C-7.01015838 -1.37202816 -4.16559564 -1.02014587 0 0 Z " fill="#9D9959" transform="translate(32,2)"/>
<path d="M0 0 C1.65 0.33 3.3 0.66 5 1 C5 2.32 5 3.64 5 5 C2.69 5.66 0.38 6.32 -2 7 C-2.66 6.34 -3.32 5.68 -4 5 C-2.35 4.34 -0.7 3.68 1 3 C0.34 3 -0.32 3 -1 3 C-0.67 2.01 -0.34 1.02 0 0 Z " fill="#10405B" transform="translate(25,30)"/>
<path d="M0 0 C2.29013653 3.4352048 2.17842973 4.985331 2 9 C1.34 9 0.68 9 0 9 C-0.33 7.35 -0.66 5.7 -1 4 C-1.33 5.65 -1.66 7.3 -2 9 C-2.66 9 -3.32 9 -4 9 C-4 6.69 -4 4.38 -4 2 C-2.68 2 -1.36 2 0 2 C0 1.34 0 0.68 0 0 Z " fill="#487087" transform="translate(123,10)"/>
<path d="M0 0 C4.67692308 1.47692308 4.67692308 1.47692308 6.3125 4.125 C6.539375 4.74375 6.76625 5.3625 7 6 C4.625 6.1875 4.625 6.1875 2 6 C0 3 0 3 0 0 Z " fill="#DAB95A" transform="translate(33,24)"/>
<path d="M0 0 C2.475 0.495 2.475 0.495 5 1 C4.67 2.65 4.34 4.3 4 6 C2.68 6 1.36 6 0 6 C0 4.02 0 2.04 0 0 Z " fill="#7596A5" transform="translate(97,13)"/>
<path d="M0 0 C0.66 0.99 1.32 1.98 2 3 C0.68 5.31 -0.64 7.62 -2 10 C-3.5 8.75 -3.5 8.75 -5 7 C-5 5.68 -5 4.36 -5 3 C-3.35 2.67 -1.7 2.34 0 2 C0 1.34 0 0.68 0 0 Z " fill="#1E485E" transform="translate(82,9)"/>
<path d="M0 0 C0 0.66 0 1.32 0 2 C-1.65 2 -3.3 2 -5 2 C-5 3.65 -5 5.3 -5 7 C-5.66 6.67 -6.32 6.34 -7 6 C-7 4.02 -7 2.04 -7 0 C-3.86650268 -1.04449911 -3.01031744 -0.93423645 0 0 Z " fill="#0C3C55" transform="translate(102,11)"/>
<path d="M0 0 C1.66666667 0 3.33333333 0 5 0 C5 1.98 5 3.96 5 6 C3.33333333 6 1.66666667 6 0 6 C0 4.02 0 2.04 0 0 Z " fill="#85A5B7" transform="translate(74,13)"/>
<path d="M0 0 C1.98 0 3.96 0 6 0 C6.33 0.99 6.66 1.98 7 3 C6.01 3.33 5.02 3.66 4 4 C2.79117904 6.00016466 2.79117904 6.00016466 2 8 C2.04125 7.05125 2.0825 6.1025 2.125 5.125 C2.34973818 1.89755144 2.34973818 1.89755144 0 0 Z " fill="#1C445D" transform="translate(31,8)"/>
<path d="M0 0 C1.32 0.33 2.64 0.66 4 1 C4 2.65 4 4.3 4 6 C2.68 6 1.36 6 0 6 C0 4.02 0 2.04 0 0 Z " fill="#85A5B2" transform="translate(53,25)"/>
<path d="M0 0 C1.65 0 3.3 0 5 0 C5.33 1.32 5.66 2.64 6 4 C4.35 4.33 2.7 4.66 1 5 C0.67 3.35 0.34 1.7 0 0 Z " fill="#B3A759" transform="translate(15,12)"/>
<path d="M0 0 C1.485 0.99 1.485 0.99 3 2 C3 3.32 3 4.64 3 6 C1.66666667 6.66666667 0.33333333 7.33333333 -1 8 C-1.04241723 5.66705225 -1.04092937 3.33297433 -1 1 C-0.67 0.67 -0.34 0.34 0 0 Z " fill="#1D4C66" transform="translate(112,8)"/>
<path d="M0 0 C1.32 0.33 2.64 0.66 4 1 C3.67 2.65 3.34 4.3 3 6 C2.01 6 1.02 6 0 6 C0 4.02 0 2.04 0 0 Z " fill="#88A4B1" transform="translate(107,25)"/>
<path d="M0 0 C1.32 1.32 2.64 2.64 4 4 C3.34 4 2.68 4 2 4 C2 4.66 2 5.32 2 6 C0.68 5.67 -0.64 5.34 -2 5 C-1.125 1.125 -1.125 1.125 0 0 Z " fill="#21506A" transform="translate(88,15)"/>
<path d="M0 0 C3.65316671 1.24976756 4.78065836 1.67098753 7 5 C6.67 5.99 6.34 6.98 6 8 C4.02 5.36 2.04 2.72 0 0 Z " fill="#949658" transform="translate(32,3)"/>
</svg>
